<svg xmlns="http://www.w3.org/2000/svg" width="34.484" height="34.484" viewBox="0 0 34.484 34.484">
  <path id="facebook-square-brands" d="M30.79,32H3.695A3.7,3.7,0,0,0,0,35.695V62.79a3.7,3.7,0,0,0,3.695,3.695H14.259V54.761H9.41V49.242h4.849V45.036c0-4.784,2.848-7.426,7.21-7.426a29.378,29.378,0,0,1,4.274.373v4.7H23.336a2.759,2.759,0,0,0-3.111,2.981v3.583h5.294l-.847,5.518H20.225V66.485H30.79a3.7,3.7,0,0,0,3.695-3.695V35.695A3.7,3.7,0,0,0,30.79,32Z" transform="translate(0 -32)" fill="#f6a60f"/>
</svg>
