<svg xmlns="http://www.w3.org/2000/svg" width="34.484" height="34.484" viewBox="0 0 34.484 34.484">
  <path id="instagram-square-brands" d="M17.242,45.136a4.106,4.106,0,1,0,4.107,4.106A4.106,4.106,0,0,0,17.242,45.136Zm9.6-3.156A4.157,4.157,0,0,0,24.5,39.64c-1.616-.638-5.465-.495-7.259-.495S11.6,39,9.983,39.64A4.157,4.157,0,0,0,7.642,41.98C7,43.6,7.147,47.45,7.147,49.241s-.142,5.64.5,7.262a4.157,4.157,0,0,0,2.341,2.341c1.616.638,5.465.495,7.259.495s5.638.149,7.259-.495A4.157,4.157,0,0,0,26.845,56.5c.643-1.616.495-5.469.495-7.261s.148-5.639-.495-7.261Zm-9.6,13.574a6.3,6.3,0,1,1,4.465-1.846,6.312,6.312,0,0,1-4.465,1.846Zm6.572-11.415a1.465,1.465,0,1,1,1.044-.43,1.473,1.473,0,0,1-1.044.43ZM30.79,32H3.695A3.7,3.7,0,0,0,0,35.695V62.79a3.7,3.7,0,0,0,3.695,3.695H30.79a3.7,3.7,0,0,0,3.695-3.695V35.695A3.7,3.7,0,0,0,30.79,32ZM29.472,54.323a7.324,7.324,0,0,1-1.99,5.157,7.328,7.328,0,0,1-5.157,1.99c-2.033.115-8.128.115-10.161,0a7.338,7.338,0,0,1-5.157-1.99,7.3,7.3,0,0,1-1.99-5.157c-.115-2.034-.115-8.129,0-10.161A7.3,7.3,0,0,1,7.007,39a7.341,7.341,0,0,1,5.157-1.984c2.033-.115,8.128-.115,10.161,0a7.329,7.329,0,0,1,5.157,1.99,7.328,7.328,0,0,1,1.99,5.161C29.587,46.2,29.587,52.287,29.472,54.323Z" transform="translate(0 -32)" fill="#f6a60f"/>
</svg>
