<svg xmlns="http://www.w3.org/2000/svg" width="34.484" height="34.484" viewBox="0 0 34.484 34.484">
  <path id="twitter-square-brands" d="M30.79,32H3.695A3.7,3.7,0,0,0,0,35.695V62.79a3.7,3.7,0,0,0,3.695,3.695H30.79a3.7,3.7,0,0,0,3.695-3.695V35.695A3.7,3.7,0,0,0,30.79,32ZM27.026,44.224c.015.216.015.439.015.654A14.266,14.266,0,0,1,12.678,59.241a14.3,14.3,0,0,1-7.751-2.263,10.636,10.636,0,0,0,1.216.062,10.122,10.122,0,0,0,6.266-2.155,5.055,5.055,0,0,1-4.719-3.5,5.441,5.441,0,0,0,2.278-.092,5.049,5.049,0,0,1-4.041-4.957v-.062a5.045,5.045,0,0,0,2.278.639,5.038,5.038,0,0,1-2.248-4.2,4.985,4.985,0,0,1,.685-2.548A14.334,14.334,0,0,0,17.05,45.44a5.059,5.059,0,0,1,8.613-4.611,9.892,9.892,0,0,0,3.2-1.216,5.035,5.035,0,0,1-2.217,2.779,10.046,10.046,0,0,0,2.91-.785A10.626,10.626,0,0,1,27.026,44.224Z" transform="translate(0 -32)" fill="#f6a60f"/>
</svg>
