<svg xmlns="http://www.w3.org/2000/svg" width="26.206" height="26.206" viewBox="0 0 26.206 26.206">
  <defs>
    <style>
      .cls-1 {
        fill: #fff;
      }
    </style>
  </defs>
  <path id="facebook-square-brands" class="cls-1" d="M23.4,32H2.808A2.808,2.808,0,0,0,0,34.808V55.4a2.808,2.808,0,0,0,2.808,2.808h8.029V49.3H7.151V45.1h3.685v-3.2c0-3.636,2.164-5.644,5.479-5.644a22.326,22.326,0,0,1,3.248.283v3.568H17.734A2.1,2.1,0,0,0,15.37,42.38V45.1h4.023L18.75,49.3H15.37v8.91H23.4A2.808,2.808,0,0,0,26.206,55.4V34.808A2.808,2.808,0,0,0,23.4,32Z" transform="translate(0 -32)"/>
</svg>
