<svg xmlns="http://www.w3.org/2000/svg" width="26.206" height="26.206" viewBox="0 0 26.206 26.206">
  <defs>
    <style>
      .cls-1 {
        fill: #fff;
      }
    </style>
  </defs>
  <path id="instagram-square-brands" class="cls-1" d="M13.1,41.983A3.12,3.12,0,1,0,16.224,45.1,3.12,3.12,0,0,0,13.1,41.983Zm7.3-2.4a3.159,3.159,0,0,0-1.779-1.779c-1.228-.485-4.153-.376-5.516-.376s-4.285-.113-5.517.376a3.159,3.159,0,0,0-1.779,1.779c-.484,1.228-.376,4.156-.376,5.518s-.108,4.286.378,5.519A3.159,3.159,0,0,0,7.589,52.4c1.228.485,4.153.376,5.517.376s4.284.113,5.516-.376A3.159,3.159,0,0,0,20.4,50.621c.488-1.228.376-4.156.376-5.518s.112-4.285-.376-5.518ZM13.1,49.9A4.791,4.791,0,1,1,16.5,48.5,4.8,4.8,0,0,1,13.1,49.9ZM18.1,41.225a1.113,1.113,0,1,1,.794-.327,1.12,1.12,0,0,1-.794.327ZM23.4,32H2.808A2.808,2.808,0,0,0,0,34.808V55.4a2.808,2.808,0,0,0,2.808,2.808H23.4A2.808,2.808,0,0,0,26.206,55.4V34.808A2.808,2.808,0,0,0,23.4,32Zm-1,16.964a5.566,5.566,0,0,1-1.512,3.919A5.568,5.568,0,0,1,16.966,54.4c-1.545.087-6.177.087-7.721,0a5.576,5.576,0,0,1-3.919-1.512,5.549,5.549,0,0,1-1.512-3.919c-.087-1.545-.087-6.178,0-7.721a5.548,5.548,0,0,1,1.512-3.919,5.579,5.579,0,0,1,3.919-1.508c1.545-.087,6.177-.087,7.721,0a5.569,5.569,0,0,1,3.919,1.512A5.569,5.569,0,0,1,22.4,41.249C22.484,42.789,22.484,47.417,22.4,48.964Z" transform="translate(0 -32)"/>
</svg>
